<?xml version="1.0" encoding="utf-8"?>
<!-- Generator: Adobe Illustrator 23.0.3, SVG Export Plug-In . SVG Version: 6.00 Build 0)  -->
<svg version="1.1" id="Layer_1" xmlns="http://www.w3.org/2000/svg" xmlns:xlink="http://www.w3.org/1999/xlink" x="0px" y="0px"
	 viewBox="0 0 460.4 61.4" style="enable-background:new 0 0 460.4 61.4;" xml:space="preserve">
<style type="text/css">
	.st0{fill:#FFBD39;}
</style>
<g>
	<g>
		<g>
			<path class="st0" d="M13.1,59.1H21c3.4,0,6.1-1,8.1-2.9s2.9-4.7,2.9-8.1V34.2c0-2.3-0.4-4.2-1.3-5.8c-0.8-1.6-2-2.8-3.3-3.5
				c-1.4-0.8-2.9-1.4-4.5-1.9c-1.6-0.5-3.3-0.8-4.9-1.1c-1.6-0.2-3.1-0.5-4.5-0.8c-3.1-0.8-4.6-2.2-4.6-4.3v-2.2
				c0-2.2,0.4-3.8,1.3-4.7c0.9-0.9,2.3-1.4,4.3-1.4H19c2,0,3.5,0.4,4.3,1.3c0.9,0.9,1.3,2.3,1.3,4.3v0.9c0,0.8,0.4,1.2,1.2,1.2h4.5
				c0.8,0,1.2-0.4,1.2-1.2v-1.6c0-3.4-1-6.1-2.9-8.1c-2-2-4.7-2.9-8.2-2.9H13c-3.4,0-6.1,1-8.1,2.9S2,10.1,2,13.5v3
				c0,2.6,0.6,4.8,1.7,6.5c1.2,1.7,2.6,2.9,4.3,3.5c1.7,0.6,3.6,1.2,5.6,1.6c2,0.5,3.9,0.8,5.6,1.1s3.1,0.8,4.3,1.7
				c1.2,0.9,1.7,2.1,1.7,3.6v12.8c0,2.1-0.4,3.6-1.3,4.5s-2.4,1.4-4.4,1.4h-4.9c-2,0-3.5-0.4-4.3-1.3c-0.9-0.9-1.3-2.3-1.3-4.3v-1.3
				c0-0.8-0.4-1.2-1.2-1.2H3.2C2.4,45,2,45.4,2,46.2v1.8c0,3.4,1,6.1,3,8.1C7,58.1,9.7,59.1,13.1,59.1z"/>
			<path class="st0" d="M124.6,48l8.2-0.1c3.4,0,6.1-1,8-3c1.9-1.9,2.9-4.6,2.8-8.1l0-3.4c0-0.8-0.4-1.3-1.3-1.3l-4.5,0
				c-0.8,0-1.2,0.4-1.2,1.3l0,3.1c0,3.5-1.7,5.2-5.1,5.3l-6.1,0c-3.4,0-5.1-1.7-5.1-5.2l-0.2-23c0-3.5,1.7-5.2,5.1-5.3l6.1,0
				c3.4,0,5.1,1.7,5.1,5.2l0,3.1c0,0.8,0.4,1.3,1.2,1.3l4.5,0c0.8,0,1.3-0.4,1.3-1.3l0-3.4c0-3.5-1-6.2-3-8.1
				c-1.9-1.9-4.6-2.8-8.1-2.8l-8.2,0.1c-3.5,0-6.2,1-8.1,2.9c-1.9,1.9-2.8,4.6-2.8,8.1l0.2,23.5c0,3.4,1,6.1,2.9,8
				C118.4,47,121.1,48,124.6,48z"/>
			<path class="st0" d="M152,48h40.1c0.8,0,1.1-0.4,1.1-1.2v-3.6c0-0.8-0.4-1.2-1.1-1.2h-33.6c-0.6,0-0.8-0.3-0.8-0.8V28.6
				c0-0.5,0.3-0.7,0.8-0.7H192c0.8,0,1.3-0.4,1.3-1.2v-3.6c0-0.8-0.4-1.2-1.3-1.2h-33.5c-0.6,0-0.8-0.2-0.8-0.7V9.2
				c0-0.5,0.3-0.7,0.8-0.7h33.6c0.8,0,1.1-0.4,1.1-1.2V3.7c0-0.8-0.4-1.2-1.1-1.2H152c-0.8,0-1.2,0.4-1.2,1.2v43
				C150.8,47.6,151.2,48,152,48z"/>
			<path class="st0" d="M46.1,48V32.5c0-0.5,0.3-0.7,0.8-0.7h10.3c3.4,0,6.1-1,8.1-2.9c1.9-1.9,2.9-4.6,2.9-8.1v-7.4
				c0-3.5-1-6.2-2.9-8.1c-1.9-1.9-4.6-2.9-8.1-2.9H40.5c-0.8,0-1.2,0.4-1.2,1.2V48H46.1z M46.1,9.2c0-0.5,0.3-0.7,0.8-0.7h9.4
				c3.3,0,5,1.7,5,5.2v6.7c0,3.5-1.7,5.2-5,5.2h-9.4c-0.5,0-0.8-0.2-0.8-0.7V9.2z"/>
			<path class="st0" d="M95.9,3.5c-0.2-0.8-0.8-1.2-1.7-1.2h-7.1c-0.9,0-1.5,0.4-1.7,1.2l-12.3,43c-0.2,0.8,0,1.2,0.7,1.2h5.1
				c0.7,0,1.1-0.4,1.3-1.2l2.7-9.2h15.5l2.7,9.2c0.1,0.5,0.2,0.8,0.4,1c0.2,0.2,0.5,0.2,0.9,0.2h5c0.7,0,1-0.4,0.8-1.2L95.9,3.5z
				 M84.3,31.7l6.2-22.6h0.3l6.3,22.6H84.3z"/>
		</g>
		<g>
			<path class="st0" d="M439.5,59.1h7.9c3.4,0,6.1-1,8.1-2.9c2-2,2.9-4.7,2.9-8.1V34.2c0-2.3-0.4-4.2-1.3-5.8
				c-0.8-1.6-2-2.8-3.3-3.5c-1.4-0.8-2.9-1.4-4.5-1.9c-1.6-0.5-3.3-0.8-4.9-1.1c-1.6-0.2-3.1-0.5-4.5-0.8c-3.1-0.8-4.6-2.2-4.6-4.3
				v-2.2c0-2.2,0.4-3.8,1.3-4.7c0.9-0.9,2.3-1.4,4.3-1.4h4.5c2,0,3.5,0.4,4.3,1.3c0.9,0.9,1.3,2.3,1.3,4.3v0.9
				c0,0.8,0.4,1.2,1.2,1.2h4.5c0.8,0,1.2-0.4,1.2-1.2v-1.6c0-3.4-1-6.1-2.9-8.1c-2-2-4.7-2.9-8.2-2.9h-7.5c-3.4,0-6.1,1-8.1,2.9
				c-2,2-2.9,4.7-2.9,8.1v3c0,2.6,0.6,4.8,1.7,6.5c1.2,1.7,2.6,2.9,4.3,3.5c1.7,0.6,3.6,1.2,5.6,1.6c2,0.5,3.9,0.8,5.6,1.1
				c1.7,0.3,3.1,0.8,4.3,1.7c1.2,0.9,1.7,2.1,1.7,3.6v12.8c0,2.1-0.4,3.6-1.3,4.5s-2.4,1.4-4.4,1.4h-4.9c-2,0-3.5-0.4-4.3-1.3
				c-0.9-0.9-1.3-2.3-1.3-4.3v-1.3c0-0.8-0.4-1.2-1.2-1.2h-4.5c-0.8,0-1.2,0.4-1.2,1.2v1.8c0,3.4,1,6.1,3,8.1
				C433.3,58.1,436,59.1,439.5,59.1z"/>
			<path class="st0" d="M373.8,3.7c-0.2-0.8-0.8-1.2-1.7-1.2H365c-0.9,0-1.5,0.4-1.7,1.2l-12.3,43c-0.2,0.8,0,1.2,0.7,1.2h5.1
				c0.7,0,1.1-0.4,1.3-1.2l2.7-9.2h15.5l2.7,9.2c0.1,0.5,0.2,0.8,0.4,1c0.2,0.2,0.5,0.2,0.9,0.2h5c0.7,0,1-0.4,0.8-1.2L373.8,3.7z
				 M362.2,31.9l6.2-22.6h0.3l6.3,22.6H362.2z"/>
			<path class="st0" d="M312.1,2.3h-4.5c-0.7,0-1.2,0.5-1.2,1.2v17.7c0,0.4-0.3,0.7-0.7,0.7h-22.5c-0.6,0-0.8-0.2-0.8-0.7V3.1
				c0-0.5-0.4-0.8-0.8-0.8h-5.2c-0.5,0-0.8,0.4-0.8,0.8v18.8h-12.7c-0.3,0-0.6,0.3-0.6,0.6v4.8c0,0.3,0.3,0.6,0.6,0.6h12.7v18.6
				c0,0.7,0.5,1.2,1.2,1.2h4.5c0.7,0,1.2-0.5,1.2-1.2V28.7c0-0.5,0.3-0.7,0.8-0.7h22.5c0.5,0,0.7,0.2,0.7,0.7l0.4,17.9
				c0,0.8,0.4,1.2,1.2,1.2h4.5c0.8,0,1.2-0.4,1.2-1.2l-0.4-43C313.3,2.7,312.9,2.3,312.1,2.3z"/>
			<path class="st0" d="M343.9,2.3h-22.6c-0.8,0-1.2,0.4-1.2,1.2v43c0,0.8,0.4,1.2,1.2,1.2h22.6c0.8,0,1.1-0.4,1.1-1.2V43
				c0-0.8-0.4-1.2-1.1-1.2h-16.1c-0.6,0-0.8-0.3-0.8-0.8V28.4c0-0.5,0.3-0.7,0.8-0.7h13.6c0.8,0,1.3-0.4,1.3-1.2v-3.6
				c0-0.8-0.4-1.2-1.3-1.2h-13.6c-0.6,0-0.8-0.2-0.8-0.7V9c0-0.5,0.3-0.7,0.8-0.7h16.1c0.8,0,1.1-0.4,1.1-1.2V3.5
				C345,2.7,344.6,2.3,343.9,2.3z"/>
			<path class="st0" d="M410.2,2.3h-17.4c-0.8,0-1.2,0.4-1.2,1.2v43c0,0.8,0.4,1.2,1.2,1.2h17.4c3.4,0,6.1-1,8.1-2.9
				c2-1.9,2.9-4.6,2.9-8.1V13.3c0-3.5-1-6.2-2.9-8.1C416.4,3.3,413.7,2.3,410.2,2.3z M414.3,36.5c0,3.5-1.7,5.2-5.1,5.2h-10
				c-0.5,0-0.8-0.3-0.8-0.8V9c0-0.5,0.3-0.7,0.8-0.7h10c3.4,0,5.1,1.7,5.1,5.2V36.5z"/>
		</g>
	</g>
	<g>
		<path class="st0" d="M236.8,31.4c1.2,1.1,2.4,2.1,3.6,3.2c2.9-2.3,4.8-5.8,4.8-9.8c0-0.7-0.1-1.3-0.2-2c-1.7,2-3.5,3.9-5.3,5.8
			C238.7,29.6,237.8,30.5,236.8,31.4z"/>
		<path class="st0" d="M249.9,42C249.8,42.1,249.9,41.9,249.9,42c-0.2,0-0.4,0-0.7-0.1c-1.2-0.4-2.6-1.2-3.9-2
			c-3.6-2.4-7-5.3-10.2-8.3c1-0.9,1.9-1.9,2.9-2.8c4.5-4.7,8.7-9.5,12.1-15.2c0.8-1.5,1.6-2.9,2-4.8c0.1-0.5,0.1-1,0-1.7
			c-0.1-0.7-0.9-1.4-1.6-1.5c0,0,0,0,0,0c-1.3-0.2-2.1,0.2-2.9,0.5c-3.1,1.5-5.5,3.5-7.9,5.7c-0.1,0.1-0.1,0.3-0.1,0.4
			c0.1,0.1,0.3,0.2,0.4,0.1c0.8-0.5,1.7-1,2.5-1.6c1.9-1.2,3.8-2.2,5.7-2.9c0.7-0.2,1.5-0.4,1.7-0.3c0.1,0.1,0,0,0,0.1
			c0,0,0,0.1,0,0.1c0,0.1,0,0.3-0.1,0.6c-0.4,1.2-1.2,2.6-2,3.9c-1.4,2-2.9,4-4.5,5.9c-2.2-3.5-6.1-5.8-10.6-5.8
			c-3.9,0-7.4,1.8-9.7,4.6c1.1,1.3,2.2,2.6,3.3,3.9c2.1,2.4,4.3,4.6,6.5,6.8c0.3,0.3,0.5,0.5,0.8,0.8c-0.3,0.3-0.6,0.6-0.9,0.9
			c-0.5-0.5-1.1-1-1.6-1.6c-2.2-2.2-4.4-4.5-6.5-6.8c-2.1-2.3-4.1-4.8-5.9-7.3c-0.9-1.3-1.7-2.6-2.4-3.9c-0.3-0.6-0.6-1.3-0.7-1.8
			c0-0.2,0-0.3-0.1-0.3c0,0,0.1,0,0.2,0c0.5,0,1,0.1,1.6,0.3c0.8,0.3,1.6,0.6,2.4,1c1.4,0.7,2.7,1.5,4.1,2.3
			c0.2,0.1,0.5,0.1,0.6-0.1c0.2-0.2,0.2-0.5,0-0.7c0,0,0,0-0.1-0.1c-1.2-1-2.4-2-3.8-2.9c-1.3-0.8-2.5-1.7-4.3-2
			c-0.2,0-0.3-0.1-0.5-0.1c-0.5,0-1.3,0-2,0.7c-0.6,0.7-0.7,1.4-0.6,2c0.1,1.1,0.4,1.9,0.7,2.7c0.7,1.6,1.5,3,2.4,4.4
			c1.4,2.1,2.9,4.1,4.4,6c-0.3,1.1-0.5,2.3-0.5,3.6c0,4.4,2.3,8.3,5.8,10.5c-1.5,1.2-2.9,2.4-4.5,3.5c-1.3,0.9-2.6,1.7-3.9,2.4
			c-0.1,0.1-0.2,0.1-0.3,0.2c-0.5,0.2-1.1,0.5-1.5,0.5c-0.2,0-0.3,0-0.3,0.1c0,0,0-0.1,0-0.2c0-1.1,0.7-2.7,1.4-4
			c0.3-0.6,0.7-1.3,1.1-1.9c0.4-0.7,0.8-1.4,1.3-2.2c0.1-0.2,0.1-0.5-0.1-0.6c-0.2-0.2-0.5-0.2-0.7,0c-1.1,1.2-2.1,2.5-3,3.9
			c-0.9,1.4-1.8,2.7-2.1,4.8c0,0.5,0,1.3,0.7,2c0.7,0.6,1.4,0.7,2,0.6c0.4,0,0.7-0.1,1.1-0.2c0.6-0.1,1.1-0.3,1.6-0.5
			c1.6-0.7,3-1.5,4.4-2.4c3.4-2.2,6.6-4.8,9.6-7.5c0.3,0.2,0.6,0.5,0.8,0.7c-1,0.9-2.1,1.8-3.1,2.6c0.7,0.1,1.5,0.2,2.3,0.2
			c1.2,0,2.4-0.2,3.6-0.5c2.4,1.9,5,3.8,7.7,5.4c1.5,0.8,2.9,1.6,4.8,2c0.5,0.1,1,0.1,1.7,0c0,0,0.1,0,0.1-0.1
			c0.7-0.2,1.3-0.9,1.4-1.6c0.2-1.3-0.2-2.1-0.5-2.9c-0.2-0.5-0.5-0.9-0.7-1.3c-1.4-2.5-3.1-4.6-5-6.6c-0.1-0.1-0.3-0.1-0.4-0.1
			c-0.1,0.1-0.2,0.3-0.1,0.4c1.7,2.7,3.5,5.4,4.4,8.2c0.1,0.4,0.2,0.8,0.3,1.2C249.9,41.6,249.9,41.8,249.9,42z"/>
	</g>
</g>
</svg>
